<?xml version="1.0" encoding="UTF-8"?>
<svg id="Capa_2" xmlns="http://www.w3.org/2000/svg" version="1.1" viewBox="0 0 344 40">
  <!-- Generator: Adobe Illustrator 29.5.0, SVG Export Plug-In . SVG Version: 2.1.0 Build 137)  -->
  <defs>
    <style>
      .st0 {
        fill: #c99d66;
      }

      .st1 {
        fill: #00bfa6;
      }

      .st2 {
        fill: #fff;
      }

      .st3 {
        fill: #31b3a0;
      }
    </style>
  </defs>
  <g>
    <g>
      <path class="st1" d="M212,32.8c-4,0-7.1-1.4-9.2-4.1-2.2-2.7-2.9-6-2.2-9.9.7-3.9,2.5-7.1,5.5-9.6,3-2.6,6.4-3.9,10.2-3.9s4.7.6,6.6,1.7c1.9,1.2,3.3,2.7,4.2,4.7l-1.8,1c-1.7-3.6-4.7-5.5-9-5.5s-6.4,1.1-9,3.4c-2.6,2.3-4.2,5.1-4.7,8.4-.6,3.3,0,6.1,1.9,8.4s4.4,3.4,7.8,3.4,4.2-.5,6.1-1.5,3.5-2.4,4.7-4.2l1.7,1.1c-1.4,2-3.3,3.6-5.5,4.8-2.2,1.2-4.6,1.8-7.2,1.8Z"/>
      <path class="st1" d="M246.1,13.3h1.9l-3.4,19.1h-1.9l.7-3.9c-2.1,2.9-5.1,4.3-8.8,4.3s-4.9-1-6.5-3.1c-1.7-2.1-2.2-4.5-1.8-7.3.5-3,1.8-5.3,3.9-7,2.1-1.7,4.5-2.5,7.1-2.5s3.4.5,4.8,1.4,2.4,2.2,3.1,3.8l.9-4.8ZM229.7,28.5c1.3,1.7,3.1,2.5,5.4,2.5s4.3-.7,6.1-2.2,2.8-3.3,3.2-5.6c.4-2.5,0-4.5-1.4-6.1-1.4-1.6-3.2-2.3-5.4-2.3s-4.2.7-5.9,2.1c-1.8,1.4-2.8,3.3-3.3,5.7-.4,2.3,0,4.3,1.4,5.9Z"/>
      <path class="st1" d="M262,12.9c2.7,0,4.9,1,6.5,3.1,1.7,2.1,2.2,4.5,1.8,7.3-.5,3-1.8,5.3-3.9,7-2.1,1.7-4.5,2.5-7.1,2.5s-3.4-.5-4.8-1.4c-1.4-.9-2.4-2.2-3-3.8l-2.2,12.4h-1.9s4.7-26.7,4.7-26.7h1.9l-.7,3.9c2.2-2.9,5.1-4.3,8.8-4.3ZM268.3,23.1c.4-2.3,0-4.3-1.4-5.9-1.3-1.7-3.1-2.5-5.4-2.5s-4.3.7-6,2.2c-1.7,1.5-2.8,3.4-3.2,5.6-.4,2.5,0,4.5,1.4,6,1.4,1.6,3.2,2.3,5.4,2.3s4.2-.7,5.9-2.1c1.8-1.4,2.8-3.3,3.3-5.7Z"/>
      <path class="st1" d="M278.1,15.2l-2.2,12.4c-.3,1.6,0,2.5.8,2.9.8.4,2.2.4,4.4.2l-.3,1.7c-2.6.4-4.4.2-5.6-.5-1.2-.8-1.6-2.2-1.2-4.3l2.2-12.4h-4.2l.3-1.9h4.2l.8-4.8,2-.6-1,5.3h5.7l-.3,1.9h-5.7Z"/>
      <path class="st1" d="M290.9,32.8c-2.8,0-5-1-6.6-3-1.6-2-2.1-4.4-1.6-7.2.5-2.8,1.8-5.1,4-6.9,2.2-1.8,4.7-2.7,7.6-2.7s3.4.4,4.8,1.3c1.4.9,2.3,2.1,2.8,3.5l-1.6.9c-.4-1.2-1.2-2.2-2.2-2.9-1.1-.7-2.4-1-4-1-2.3,0-4.4.8-6.2,2.3s-2.9,3.4-3.3,5.7c-.4,2.3,0,4.3,1.3,5.9,1.2,1.6,3,2.4,5.3,2.4s3-.4,4.3-1.1c1.3-.7,2.4-1.7,3.2-2.9l1.5,1c-1,1.5-2.3,2.7-3.9,3.5-1.6.9-3.5,1.3-5.4,1.3Z"/>
      <path class="st1" d="M313.8,12.9c2.3,0,4,.7,5.1,2.1,1.1,1.4,1.5,3.2,1.1,5.6l-2.1,11.9h-2l2.1-11.9c.3-1.8,0-3.2-.7-4.2-.8-1-2.1-1.6-3.9-1.6s-3.7.6-5.1,1.9c-1.5,1.3-2.4,3.2-2.8,5.6h0s-1.8,10.1-1.8,10.1h-1.9l4.7-26.7h1.9l-1.9,10.9c1.8-2.5,4.3-3.7,7.3-3.7Z"/>
      <path class="st1" d="M341.6,13.3h1.9l-3.4,19.1h-1.9l.7-3.9c-2.1,2.9-5.1,4.3-8.8,4.3s-4.9-1-6.5-3.1c-1.7-2.1-2.2-4.5-1.8-7.3.5-3,1.8-5.3,3.9-7,2.1-1.7,4.5-2.5,7.1-2.5s3.4.5,4.8,1.4,2.4,2.2,3.1,3.8l.9-4.8ZM325.2,28.5c1.3,1.7,3.1,2.5,5.4,2.5s4.3-.7,6.1-2.2,2.8-3.3,3.2-5.6c.4-2.5,0-4.5-1.4-6.1-1.4-1.6-3.2-2.3-5.4-2.3s-4.2.7-5.9,2.1c-1.8,1.4-2.8,3.3-3.3,5.7-.4,2.3,0,4.3,1.4,5.9Z"/>
    </g>
    <g>
      <path class="st2" d="M99.1,7.5c-1.5-1.5-3.8-2.3-6.8-2.3h-10.5l-1.1,6.1h20.1c-.1-1.5-.7-2.8-1.8-3.8Z"/>
      <path class="st2" d="M87.8,15.6h0s-7.8,0-7.8,0l-3,17h11.6c3.1,0,5.6-.7,7.5-2.1s3.1-3.3,3.4-5.6c.4-2.7-.4-4.8-2.5-6.2,1.3-.8,2.2-1.8,2.9-3.1h-12.1ZM91.9,23.9c-.1.6-.4,1.1-.9,1.4-.5.4-1,.5-1.7.5h-3.3l.7-3.9h3.8c1.1.2,1.5.8,1.3,2Z"/>
      <polygon class="st2" points="113.4 5.2 105.6 5.2 104.5 11.3 112.3 11.3 113.4 5.2"/>
      <polygon class="st2" points="100.7 32.6 117.6 32.6 118.9 25 109.9 25 111.6 15.6 103.8 15.6 100.7 32.6"/>
      <polygon class="st2" points="136 22.8 131.4 22.8 134.6 15.6 126.8 15.6 118.4 32.6 127.1 32.6 128.6 29.1 136.5 29.1 136.9 32.6 145.1 32.6 142.6 15.6 135.3 15.6 136 22.8"/>
      <polygon class="st2" points="141.1 5.2 132 5.2 128.9 11.3 142 11.3 141.1 5.2"/>
      <path class="st2" d="M165.9,18.9c-.3,1.8-1.1,3.3-2.4,4.4s-2.6,1.7-4.2,1.7h-3.2l1.7-9.4h-8.2l-3,17h11.4c4.1,0,7.6-1.2,10.4-3.7,2.8-2.5,4.6-5.7,5.3-9.6.2-1.3.3-2.5.2-3.7h-8.2c.4.9.4,2,.2,3.3Z"/>
      <path class="st2" d="M171.5,9.3c-2.2-2.8-5-4.2-8.6-4.2h-11.4l-1.1,6.1h22.3c-.3-.7-.8-1.3-1.2-2Z"/>
      <polygon class="st2" points="192.9 22.3 194.1 15.6 177.3 15.6 174.3 32.6 192.3 32.6 193.6 25.4 183.4 25.4 183.9 22.3 192.9 22.3"/>
      <polygon class="st2" points="196.9 5.2 179.1 5.2 178 11.3 195.9 11.3 196.9 5.2"/>
    </g>
  </g>
  <g>
    <g>
      <path class="st0" d="M35.7,31.4c1.6,0,3.3,0,5,0,1,0,1.9-.3,2.6-.7,1-.6,1.6-1.6,2-2.3.7-1.2,1-2.2.9-3.2,0-1-.5-2-1.1-3.2-.4-.8-.9-1.9-1.5-2.9-.4-.7-.9-1.5-1.3-1.9-.6-.5-1.3-.5-2.3-.5,0,0-.2,0-.3,0-1.4,0-2.9,0-4.4,0-2.2,0-4.5,0-6.4,0h0c-.5,0-.9,0-1.2.3-.4.3-.6.8-.9,1.4,0,.2-.2.3-.3.5-.3.5-.6,1.1-.8,1.6l-.8,1.6c-.3.5-.6,1.1-.8,1.6-.4.9-.9,1.7-.6,2.6.1.5.4,1,.7,1.5.5.9.9,1.5,1.3,2,1,1.2,2.1,1.3,3.7,1.4,2.2.1,4.4.2,6.7.2Z"/>
      <path class="st0" d="M22,24.8s0,0,0,0c0,0,.1,0,.2-.1.8-1.5,1.8-3.5,2.7-5.4h0c.6-1.2,1-2.1,1.4-2.8.2-.3.1-.4,0-.6,0,0-.2-.2-.3-.3h0c-.8-.8-1.9-1.9-2.8-2.7l-.8-.7c-.1,0-.2-.2-.3-.2,0,0-.1,0-.2,0-.2,0-.5.2-.7.3-.1,0-.2.1-.3.2-.5.3-1.1.7-1.7,1.1h-.2c-.5.4-1,.8-1.4,1-.6.4-.9.7-1.2,1.3-.6,1.4-1.1,2.7-1.6,4.1,0,.2-.1.4-.2.6,0,.2,0,.3,0,.4,0,.3.5.6.9.8h0c.2.2.5.3.8.4,1.7.8,3.4,1.7,5.3,2.5,0,0,.2,0,.2,0Z"/>
      <path class="st0" d="M47.8,24.7s0,0,.2,0c0,0,.2,0,.3-.1l.6-.3c1.9-.9,3.8-1.9,5.7-2.9h0c.2-.1.4-.2.4-.4h0c0-.1,0-.4-.2-.5h0c-.2-.7-.5-1.3-.7-1.8-.5-1.1-.9-1.9-1.5-3h0c-.1-.3-.2-.5-.4-.6,0,0-.1-.1-.2-.2-.4-.2-1-.5-1.6-.9-.5-.3-1-.6-1.6-.9-.6-.3-1.4-.8-2-1.1,0,0-.2,0-.2,0-.5.6-1.3,1.5-2.1,2.3-.5.6-.9,1.1-1.2,1.4,0,0-.1.2-.1.2,0,0,0,0,0,.2,1.7,3.1,3.1,5.8,4.2,8.3,0,.1.1.2.2.2,0,0,0,0,0,0Z"/>
      <path class="st0" d="M62.1,10c0,0,0,0,.1-.2,0,0,0-.2,0-.3,0-.5-.2-1-.7-1.2-.3-.1-.6-.1-.9-.1-.3,0-.5,0-.8,0-6.8-.2-13.1,0-19.9,0-9.1,0-18.2-.1-27.3-.1-1.9,0-3.5,0-5.3,0-.5,0-.8,0-1.1.4h0c-.3.3-.3.7-.2,1.1,0,.1,0,.3.1.3"/>
      <path class="st0" d="M46.5,34.7c0,0,.1,0,.2,0,2.3-.9,4.7-2.4,6.9-4.5,2.1-2,3.9-4.3,5-6.6.1-.3.2-.5.1-.5,0-.2-.3-.3-.5-.4h0c-.3-.1-.6-.3-.9-.4h-.3c0-.1-.1-.2-.2-.2h0c-.2,0-.5-.2-.7-.2s-.1,0-.2,0c-1.4.7-3.9,2-6,3h-.2c-.7.4-1.3.7-1.8,1-.2,0-.2.2-.4.3-.2.4-.5.8-.8,1.2-.1.2-.3.4-.4.7-.3.4-.5.8-.8,1.3h0c-.4.7-.8,1.4-1.2,2-.2.3-.2.4,0,.8.1.3.3.5.5.8l.3.5c0,.1.2.3.3.4.4.6.6.8.9.8Z"/>
      <path class="st0" d="M23,34.9c.1,0,.3,0,.5-.5.2-.3.3-.7.5-1.1h0c0-.2.2-.4.2-.5,0,0,0-.1,0-.2.1-.2.2-.5.3-.7,0-.2,0-.3,0-.6,0-.2-.2-.3-.2-.4h0c-.2-.5-.4-.8-.6-1.2l-.5-1c-.2-.3-.3-.6-.5-.9-.3-.5-.5-1-.8-1.5-.1-.2-.3-.3-.5-.5-2.3-1.1-5.3-2.6-7.1-3.5-.2,0-.3-.1-.4-.1s-.2,0-.4.1c-.3,0-.5.2-.8.3h-.2c0,.1-.2.1-.3.2-.4.1-1,.4-1,.6,0,.2.2.6.3.8h0c1.4,2.4,3,4.5,4.9,6.3,2,1.9,4.2,3.4,6.5,4.4,0,0,.2,0,.2,0Z"/>
      <path class="st0" d="M34.3,37.3c3.3,0,6.6-.5,9.8-1.6h0c.8-.3.9-.4.8-.8,0-.3-.4-.8-.8-1.3-.2-.3-.4-.6-.8-.8-.2-.1-.5-.2-.8-.2-1.7,0-3.8,0-5.8,0-3.6,0-6.5,0-9.2-.3,0,0-.2,0-.3,0-.2,0-.4,0-.6,0-.5,0-.9.1-1.1.4-.3.3-.4.6-.6,1,0,0,0,.2-.1.3-.2.4-.5,1.1-.4,1.4.1.2.6.4.9.5h.1c2.8.9,5.7,1.4,8.8,1.4Z"/>
      <path class="st0" d="M35.7,15.4c2.2,0,3.8,0,5.4-.1.4,0,.7-.1.9-.3.5-.2.9-.7,1.3-1.1l.3-.3c.7-.7,1.3-1.5,1.9-2.3,0,0,0,0,0,0h-18.1s-4.3,0-4.3,0c.2.2.4.4.5.6.6.6,1.3,1.2,1.9,1.8l.2.2c1.4,1.2,1.8,1.5,3.4,1.5s.2,0,.3,0c.2,0,.4,0,.5,0,1,0,1.9,0,2.9,0h0c.9,0,1.9,0,2.8,0Z"/>
      <path class="st0" d="M10.4,22.2c0,0,.2,0,.4-.1,0,0,2.3-.9,2.3-.9.2,0,.3-.2.4-.2h0c0,0,0-.2.1-.3.4-1.3.9-2.5,1.4-3.7.2-.6.5-1.2.7-1.8,0,0,0-.2,0-.2,0-.2-.3-.4-.5-.5,0,0-.1-.1-.2-.2-.4-.3-.9-.7-1.4-1.1-.5-.4-1-.9-1.4-1.3l-.2-.2c-.2-.2-.3-.3-.5-.3h0c-.4,0-.9,0-1.4,0h-3.3s-.2,0-.2,0c0,0,0,0,0,0,0,.5.3,1.4.4,2,.7,2.6,1.6,5.2,2.6,7.6h0c.1.3.2.6.4.9,0,0,0,0,0,0h0c0,0,.1.3.2.3,0,0,0,0,0,0Z"/>
      <path class="st0" d="M57.7,11.3s0,0,.1,0h0s0,0,0,0c.2,0,.4,0,.7,0,.3,0,.7,0,1.1,0,.4,0,.7,0,1.1,0,.6,0,1.1,0,1.4,0,0,0,.2,0,.2,0,0,0,0,0,0,.1-.6,3.8-1.5,7.3-2.9,10.4-.1.2-.2.2-.2.2s-.2,0-.3,0c-.4-.1-.8-.3-1.2-.5-.2,0-.5-.2-.7-.3-.4-.1-.6-.3-.7-.4h0s0,0,0,0c0,0-.1-.2-.2-.3-.7-1.8-1.6-3.5-2.4-5.2-.3-.6-.1-.8.5-1.3h0s0,0,0,0c.7-.6,1.3-1.2,2-1.8.2-.2.4-.4.6-.5.1-.1.2-.2.3-.2h0s0,0,0,0h0c.1,0,.4-.1.6-.1"/>
      <path class="st0" d="M16.6,13.5c.6,0,1.2-.4,1.9-.8.4-.2,1.4-.8,2-1.3,0,0,0,0,0,0,.1,0,.2-.1.2-.2-.1,0-.3,0-.4,0-.5,0-1.1,0-1.5,0s-1.2,0-1.4,0-.3,0-.5,0h-1.5c-.3,0-.7,0-1.1,0,0,0-.2,0-.3,0-.2,0-.6,0-.8,0,0,.1.3.3.5.5h0c.6.5,1.4,1.2,2,1.6.2.1.5.2.7.2Z"/>
      <path class="st0" d="M52.6,13.7c.1,0,.2,0,.3,0,.3-.1.7-.5,1.1-.8,0,0,.2-.2.3-.2,0,0,.2-.2.3-.3.3-.2.6-.5.8-.8.1-.1.2-.2.2-.3,0,0,0,0,0,0-.4,0-.9,0-1.4,0-1.1,0-2.4,0-3.7,0s-1.9,0-2.6,0c1,.5,2.1,1.2,3.1,1.7.4.2.7.4,1,.5.3.2.5.2.7.2Z"/>
    </g>
    <g>
      <path class="st3" d="M6.3,16.5c-.4-1.8-1.1-3.7-1.3-5.6-1.6.1-3.2-.5-4.4-1.4,0,2.6,2.1,5.1,4.2,6.4s1,.7,1.5.6Z"/>
      <path class="st3" d="M61,6.9c0-4-3-6.6-6.7-6.5-3.7-.1-6.7,2.5-6.7,6.5"/>
      <path class="st3" d="M21,6.9c0-4-3-6.6-6.7-6.5-3.7-.1-6.7,2.5-6.7,6.5"/>
      <path class="st3" d="M57.9,28.1c1.4,0,2.8-.3,4.1-.7,3.5-1,7.8-3.4,8.6-7.3,1-4.5-2.1-8.7-6.7-9-.7,5.9-2.7,12.1-6.1,17ZM63,22.1c0-.6.5-1.2,1.1-1.2s1.2.5,1.2,1.1-.5,1.2-1.1,1.2-1.2-.5-1.2-1.1Z"/>
    </g>
  </g>
</svg>