<?xml version="1.0" encoding="UTF-8"?>
<svg id="Capa_2" xmlns="http://www.w3.org/2000/svg" version="1.1" viewBox="0 0 356 300">
  <!-- Generator: Adobe Illustrator 29.5.0, SVG Export Plug-In . SVG Version: 2.1.0 Build 137)  -->
  <defs>
    <style>
      .st0 {
        fill: #c99d66;
      }

      .st1 {
        fill: #00bfa6;
      }

      .st2 {
        fill: #fff;
      }

      .st3 {
        fill: #31b3a0;
      }
    </style>
  </defs>
  <g>
    <g>
      <path class="st0" d="M174.3,91c4.8,0,9.6,0,14.4-.3,3-.2,5.5-.9,7.4-2.1,2.8-1.7,4.7-4.7,5.9-6.8,2-3.4,2.8-6.2,2.5-9.1-.2-2.9-1.4-5.7-3.2-9.2-1.2-2.4-2.7-5.5-4.3-8.5-1.1-2.1-2.5-4.5-3.9-5.6-1.8-1.5-3.8-1.5-6.6-1.5-.3,0-.6,0-.9,0-4,0-8.5,0-12.8,0-6.5,0-13.1,0-18.4.1h0c-1.4,0-2.6.1-3.5.8-1.1.9-1.8,2.4-2.7,4-.2.5-.5.9-.8,1.4-.8,1.6-1.6,3.2-2.4,4.8l-2.4,4.7c-.8,1.5-1.6,3.1-2.4,4.7-1.3,2.6-2.5,5-1.7,7.7.4,1.5,1.1,2.9,1.9,4.4,1.3,2.5,2.5,4.4,3.7,5.8,2.8,3.4,6.1,3.9,10.8,4.1,6.3.3,12.9.5,19.4.5Z"/>
      <path class="st0" d="M134.5,71.7s0,0,0,0c.2,0,.4-.1.6-.4,2.2-4.2,5.2-10.3,7.8-15.6h0c1.6-3.4,3-6.2,4-8.2.5-.9.4-1.3,0-1.7-.2-.3-.5-.5-.7-.8l-.2-.2c-2.2-2-5.6-5.2-8.2-7.6l-2.2-2.1c-.3-.3-.6-.5-.9-.7-.2,0-.3-.1-.5-.1-.6,0-1.3.5-2,1-.3.2-.6.4-.9.6-1.5,1-3.2,2.1-4.9,3.2l-.5.3c-1.5,1-2.9,1.9-4.1,2.7-1.9,1.2-2.6,2-3.4,3.8-1.7,3.9-3.2,7.9-4.6,11.9-.2.7-.4,1.2-.5,1.8,0,.4,0,.8,0,1.1.3,1,1.5,1.6,2.5,2.2h.3c.7.5,1.5.9,2.2,1.3,4.8,2.4,10,5,15.2,7.3.2,0,.5.1.7.1Z"/>
      <path class="st0" d="M209.3,71.5c.1,0,.3,0,.4,0,.2,0,.5-.2.8-.3l1.8-.9c5.5-2.7,11.1-5.4,16.5-8.4h0c.5-.3,1.2-.7,1.2-1h0c0-.3-.3-1.1-.4-1.6v-.2c-.8-1.8-1.6-3.7-2.1-5-1.3-3.1-2.6-5.6-4.3-8.7v-.2c-.5-.6-.8-1.2-1.2-1.6-.2-.2-.4-.3-.6-.5-1.1-.6-2.8-1.5-4.7-2.5-1.4-.8-3-1.6-4.6-2.5-1.8-1-4.1-2.2-5.7-3.1,0,0-.5-.3-.5-.3-1.6,1.8-3.9,4.4-6,6.8-1.4,1.6-2.7,3.1-3.6,4.1-.2.3-.3.4-.3.5,0,0,0,.2.2.7,5,8.8,9,16.8,12.2,24.2.2.4.4.5.5.6,0,0,.2,0,.3,0Z"/>
      <path class="st0" d="M250.9,28.9c.1,0,.3-.1.4-.4,0-.2.1-.5.2-.7.1-1.5-.6-2.8-2.1-3.4-.8-.3-1.7-.3-2.6-.4-.8,0-1.5,0-2.3,0-19.7-.6-38,0-57.7.1-26.3,0-52.7-.3-79-.4-5.4,0-10,0-15.4,0-1.3,0-2.4.2-3.2,1.1h0c-.7.9-.8,2.1-.6,3.1,0,.3.2.7.4,1"/>
      <path class="st0" d="M205.5,100.7c.2,0,.4,0,.6,0,6.6-2.5,13.5-7,19.9-13,6.1-5.7,11.3-12.5,14.6-19,.4-.9.5-1.4.4-1.5-.2-.5-.9-.8-1.5-1.1h-.2c-.8-.4-1.7-.8-2.5-1.1l-.8-.3c-.2,0-.4-.1-.6-.2h0c-.7-.3-1.4-.5-1.9-.5s-.4,0-.5,0c-4.1,1.9-11.4,5.7-17.3,8.7l-.5.2c-2,1-3.8,1.9-5.1,2.6-.5.3-.7.5-1,.9-.7,1-1.4,2.2-2.2,3.5-.4.6-.8,1.3-1.2,1.9-.7,1.2-1.5,2.5-2.2,3.7h0c-1.2,2-2.4,4-3.5,5.9-.6.9-.5,1.3,0,2.2.4.7.9,1.5,1.4,2.2l.9,1.3c.3.4.5.8.7,1.2,1.1,1.7,1.7,2.4,2.7,2.4Z"/>
      <path class="st0" d="M137.4,101c.3,0,.7-.1,1.4-1.5.5-.9,1-2,1.5-3.1v-.2c.3-.5.5-.9.8-1.4,0-.2.2-.4.3-.5.3-.7.7-1.4.9-2.1.2-.5.2-.9-.3-1.7-.2-.4-.4-.8-.7-1.3l-.2-.4c-.5-1-1.1-2-1.7-3.2l-1.6-2.9c-.5-.9-1-1.8-1.4-2.6-.8-1.5-1.6-2.9-2.4-4.4-.4-.7-.7-.9-1.5-1.3-6.6-3.3-15.3-7.7-20.6-10.3-.5-.3-.9-.4-1.2-.4s-.7,0-1.3.3c-.8.3-1.6.6-2.3.9l-.5.2c-.3.1-.6.2-.9.4-1,.4-2.8,1.1-3,1.7-.2.5.5,1.7.9,2.4v.2c4.1,6.8,8.9,12.9,14.4,18.1,5.9,5.6,12.2,9.9,18.8,12.8.2,0,.5.1.6.1Z"/>
      <path class="st0" d="M170.1,107.9c9.6,0,19.2-1.5,28.4-4.5h.2c2.2-.8,2.7-1.3,2.4-2.2-.2-.8-1-2.2-2.2-3.8-.5-.7-1.3-1.6-2.2-2.2-.6-.4-1.4-.6-2.4-.6-5,0-10.9.2-16.8.2-10.4,0-18.9-.2-26.8-.8-.2,0-.5,0-.7,0-.6,0-1.1,0-1.7,0-1.6,0-2.5.3-3.2,1.2-.7.8-1.3,1.9-1.8,2.8-.1.3-.3.6-.4.9-.6,1.2-1.6,3.1-1.2,4,.4.6,1.8,1.1,2.7,1.4h.3c8.1,2.7,16.6,3.9,25.5,3.9Z"/>
      <path class="st0" d="M174.3,44.5c6.3,0,11.1,0,15.6-.3,1-.1,1.9-.4,2.7-.7,1.5-.7,2.7-1.9,3.8-3.2l.7-.8c1.9-2.1,3.9-4.3,5.5-6.6,0,0,0,0,0,0h-52.4s-12.4,0-12.4,0c.5.6,1.1,1.2,1.6,1.6,1.8,1.8,3.6,3.4,5.6,5.1l.7.6c4,3.5,5.1,4.3,9.8,4.3s.5,0,.8,0c.5,0,1,0,1.5,0,2.8,0,5.6,0,8.3,0h0c2.7,0,5.4,0,8.2,0Z"/>
      <path class="st0" d="M101.1,64.3c.3,0,.7-.2,1.1-.4.1,0,6.5-2.7,6.5-2.7.6-.2.9-.4,1-.6h0c.1-.3.3-.6.4-.9,1.2-3.7,2.7-7.3,4.1-10.9.7-1.7,1.4-3.5,2.1-5.3,0-.3,0-.5,0-.7-.2-.5-.8-1-1.4-1.5-.2-.1-.4-.3-.6-.5-1.3-.9-2.7-2.1-4.1-3.2-1.4-1.2-2.9-2.5-4.2-3.6l-.5-.5c-.6-.6-.9-.8-1.4-.8h0c-1.3,0-2.6,0-4.1,0h-9.4s-.4,0-.4,0c0,0,0,0,0,.2.3,1.6.9,4,1.3,5.7,1.9,7.6,4.5,15,7.7,22v.2c.5.8.8,1.6,1.2,2.4,0,0,0,.2.1.3h0c.1.3.4.8.6.9,0,0,0,0,0,0Z"/>
      <path class="st0" d="M237.9,32.6c.1,0,.3,0,.4,0h0s0,0,0,0c.6,0,1.2,0,1.9,0,1,0,2,0,3.1,0,1.1,0,2.1,0,3.2,0,1.8,0,3,0,4,0,.3,0,.4,0,.5,0,0,0,0,.2,0,.3-1.6,11.1-4.4,21.2-8.4,30.2-.3.6-.5.6-.6.6s-.4,0-.8-.2c-1-.4-2.2-.9-3.4-1.3-.7-.3-1.4-.6-2-.8-1-.4-1.7-.8-2-1.2h0s0,0,0,0c-.2-.2-.4-.5-.6-1-2.1-5.2-4.5-10.2-7-14.9-.8-1.6-.3-2.4,1.4-3.9h0s0,0,0,0c2-1.7,3.9-3.5,5.8-5.3.6-.5,1.1-1.1,1.7-1.6.3-.3.6-.5.8-.6h0s0,0,0,0h0c.4-.3,1.2-.3,1.9-.3"/>
      <path class="st0" d="M118.8,39c1.8,0,3.6-1.1,5.4-2.2,1.1-.7,3.9-2.5,5.7-3.7,0,0,.2-.1.3-.2.3-.2.5-.4.7-.5-.3,0-.7,0-1.2,0-1.5,0-3.1,0-4.4,0s-3.4,0-4.1,0-.9,0-1.4,0h-4.2c-1,0-2.1,0-3.2,0-.2,0-.5,0-.8,0-.5,0-1.8,0-2.4.2.2.3.7.9,1.5,1.5h.1c1.7,1.6,4,3.6,5.9,4.5.7.3,1.4.5,2.1.5Z"/>
      <path class="st0" d="M223.3,39.7c.3,0,.6,0,.8-.2,1-.4,2.1-1.4,3.1-2.3.3-.2.5-.5.8-.7.2-.2.5-.5.9-.8.7-.6,1.6-1.4,2.3-2.2.3-.4.5-.6.6-.8,0,0-.3,0-.3,0-1.1,0-2.5,0-3.9,0-3.3,0-7,0-10.7,0-3,0-5.4,0-7.5,0,2.8,1.6,6.2,3.3,8.9,4.8,1.1.6,2.1,1.1,3,1.6.8.4,1.4.6,1.9.6Z"/>
    </g>
    <g>
      <path class="st3" d="M89,47.9c-1.1-5.3-3.2-10.8-3.8-16.2-4.6.3-9.2-1.4-12.8-4,.2,7.7,6.1,14.7,12.3,18.6,1.2.7,2.9,2,4.3,1.6Z"/>
      <path class="st3" d="M247.6,20c0-11.6-8.7-19.1-19.5-18.8-10.8-.3-19.5,7.2-19.5,18.8"/>
      <path class="st3" d="M131.8,20c0-11.6-8.7-19.1-19.5-18.8-10.8-.3-19.5,7.2-19.5,18.8"/>
      <path class="st3" d="M238.5,81.5c4-.1,8.2-1,12-2,10.3-2.8,22.6-9.9,25-21.1,2.8-13-6.1-25.1-19.3-26.1-2,17-7.9,35.2-17.7,49.2ZM253.5,64c0-1.8,1.4-3.4,3.3-3.4s3.4,1.4,3.4,3.3c0,1.8-1.4,3.4-3.3,3.4s-3.4-1.4-3.4-3.3Z"/>
    </g>
  </g>
  <g>
    <g>
      <path class="st1" d="M28.9,283c-9.4,0-16.6-3.2-21.7-9.7-5.1-6.5-6.8-14.2-5.2-23.3,1.6-9.1,6-16.7,13-22.7,7.1-6,15.1-9.1,24.1-9.1s11.2,1.4,15.6,4.1c4.4,2.7,7.7,6.4,9.8,11.1l-4.2,2.2c-4-8.6-11.1-12.8-21.3-12.8s-15.1,2.7-21.1,8c-6.1,5.4-9.8,12-11.2,19.8-1.3,7.8.1,14.4,4.4,19.8,4.2,5.4,10.4,8,18.3,8s9.9-1.2,14.3-3.5c4.5-2.4,8.1-5.6,11-9.8l4,2.5c-3.4,4.7-7.7,8.5-12.9,11.3-5.3,2.8-10.9,4.2-16.9,4.2Z"/>
      <path class="st1" d="M109.2,237.1h4.5l-7.9,44.9h-4.5l1.6-9.1c-5,6.7-11.9,10.1-20.7,10.1s-11.5-2.4-15.4-7.3c-3.9-4.8-5.3-10.6-4.1-17.1,1.3-7,4.4-12.5,9.3-16.5,4.9-4,10.5-6,16.7-6s8,1.1,11.4,3.3c3.4,2.2,5.7,5.2,7.2,9l2-11.3ZM70.5,272.9c3.1,3.9,7.4,5.8,12.7,5.8s10.1-1.7,14.3-5.2c4.1-3.5,6.6-7.9,7.5-13.3,1-5.8-.1-10.6-3.4-14.3-3.3-3.7-7.5-5.5-12.8-5.5s-9.8,1.7-13.9,5c-4.1,3.3-6.7,7.8-7.7,13.5-1,5.4.1,10,3.2,13.9Z"/>
      <path class="st1" d="M146.6,236.2c6.3,0,11.5,2.4,15.4,7.3,3.9,4.8,5.3,10.6,4.1,17.1-1.3,7-4.4,12.5-9.3,16.5s-10.5,6-16.7,6-8-1.1-11.4-3.3c-3.3-2.2-5.7-5.2-7.1-9l-5.1,29.3h-4.5s11-62.9,11-62.9h4.5l-1.6,9.2c5.1-6.8,12.1-10.2,20.7-10.2ZM161.4,260.2c1-5.4-.1-10-3.2-13.9-3.1-3.9-7.4-5.8-12.7-5.8s-10.1,1.7-14.2,5.2c-4.1,3.5-6.6,7.9-7.6,13.3-1,5.8.1,10.5,3.4,14.2,3.3,3.7,7.5,5.5,12.8,5.5s9.8-1.7,13.9-5c4.1-3.3,6.7-7.8,7.7-13.5Z"/>
      <path class="st1" d="M184.4,241.5l-5.2,29.2c-.6,3.7,0,5.9,1.8,6.7,1.8.8,5.3,1,10.3.5l-.6,4c-6,1-10.4.5-13.2-1.3-2.8-1.8-3.7-5.1-2.8-10.1l5.1-29.2h-9.9l.8-4.4h9.9l2-11.2,4.8-1.3-2.2,12.6h13.4l-.8,4.4h-13.4Z"/>
      <path class="st1" d="M214.7,283c-6.6,0-11.7-2.4-15.5-7.1-3.7-4.7-5-10.4-3.8-17.1,1.1-6.6,4.3-12.1,9.5-16.3,5.2-4.2,11.1-6.4,17.8-6.4s8.1,1,11.4,3.1c3.3,2.1,5.5,4.8,6.7,8.3l-3.9,2.1c-1-2.9-2.8-5.1-5.3-6.7s-5.6-2.4-9.3-2.4c-5.4,0-10.3,1.8-14.5,5.4-4.2,3.6-6.8,8.1-7.8,13.5-1,5.4,0,10,3,13.8,2.9,3.7,7.1,5.6,12.6,5.6s7-.9,10.1-2.6c3.1-1.7,5.6-4,7.5-6.9l3.6,2.4c-2.3,3.5-5.3,6.3-9.2,8.3-3.9,2-8.1,3-12.8,3Z"/>
      <path class="st1" d="M268.6,236.2c5.3,0,9.3,1.6,12,4.9s3.6,7.6,2.7,13.1l-4.9,27.9h-4.7l4.9-27.9c.7-4.2.1-7.5-1.7-10-1.9-2.5-4.9-3.7-9.2-3.7s-8.6,1.5-12.1,4.6c-3.5,3.1-5.7,7.5-6.7,13.3h0c0,0-4.2,23.7-4.2,23.7h-4.5l11.1-62.8h4.5l-4.5,25.7c4.3-5.8,10-8.7,17.3-8.7Z"/>
      <path class="st1" d="M334.1,237.1h4.5l-7.9,44.9h-4.5l1.6-9.1c-5,6.7-11.9,10.1-20.7,10.1s-11.5-2.4-15.4-7.3c-3.9-4.8-5.3-10.6-4.1-17.1,1.3-7,4.4-12.5,9.3-16.5,4.9-4,10.5-6,16.7-6s8,1.1,11.4,3.3c3.4,2.2,5.7,5.2,7.2,9l2-11.3ZM295.4,272.9c3.1,3.9,7.4,5.8,12.7,5.8s10.1-1.7,14.3-5.2c4.1-3.5,6.6-7.9,7.5-13.3,1-5.8-.1-10.6-3.4-14.3-3.3-3.7-7.5-5.5-12.8-5.5s-9.8,1.7-13.9,5c-4.1,3.3-6.7,7.8-7.7,13.5-1,5.4.1,10,3.2,13.9Z"/>
    </g>
    <g>
      <path class="st2" d="M72.1,137.8c-4.5-4.4-11-6.7-19.7-6.7h-30.5l-3.1,17.8h58.4c-.3-4.3-2-8-5.1-11.1Z"/>
      <path class="st2" d="M39.4,161.4h0c0,0-22.7,0-22.7,0l-8.7,49.4h33.7c8.9,0,16.2-2,21.8-6.1,5.6-4.1,8.8-9.5,9.8-16.1,1.2-7.8-1.2-13.8-7.2-18.1,3.8-2.3,6.5-5.3,8.4-9.1h-35.1ZM51.1,185.5c-.4,1.7-1.2,3.1-2.6,4.1-1.3,1-2.9,1.5-4.8,1.5h-9.5l2-11.4h11c3.2.6,4.5,2.4,3.9,5.7Z"/>
      <polygon class="st2" points="113.5 131.1 90.9 131.1 87.8 148.9 110.4 148.9 113.5 131.1"/>
      <polygon class="st2" points="76.8 210.7 125.6 210.7 129.5 188.6 103.3 188.6 108.2 161.3 85.6 161.3 76.8 210.7"/>
      <polygon class="st2" points="178.9 182.3 165.7 182.3 175.1 161.3 152.4 161.3 128 210.7 153.1 210.7 157.6 200.5 180.6 200.5 181.5 210.7 205.3 210.7 198.2 161.3 177 161.3 178.9 182.3"/>
      <polygon class="st2" points="193.9 131.1 167.3 131.1 158.5 148.9 196.5 148.9 193.9 131.1"/>
      <path class="st2" d="M265.8,170.9c-1,5.2-3.3,9.5-6.8,12.8s-7.7,4.9-12.3,4.9h-9.2l4.9-27.4h-23.8l-8.8,49.4h33.1c11.9,0,21.9-3.6,30.1-10.7,8.2-7.2,13.3-16.5,15.3-27.9.7-3.8.8-7.3.6-10.8h-23.8c1,2.7,1.3,5.9.6,9.6Z"/>
      <path class="st2" d="M282,143.2c-6.3-8-14.6-12.1-25.1-12.1h-33l-3.2,17.8h64.8c-1-2-2.2-3.9-3.6-5.7Z"/>
      <polygon class="st2" points="344.1 180.9 347.6 161.3 298.7 161.3 290 210.7 342.3 210.7 345.9 189.8 316.4 189.8 317.9 180.9 344.1 180.9"/>
      <polygon class="st2" points="355.7 131.1 304 131.1 300.8 148.9 352.6 148.9 355.7 131.1"/>
    </g>
  </g>
</svg>